HIERARCHY
ROOT hip
{
  OFFSET 0 0 0
  CHANNELS 6 Xposition Yposition Zposition Zrotation Yrotation Xrotation
  JOINT abdomen
  {
    OFFSET 0 20.6881 -0.73152
    CHANNELS 3 Zrotation Xrotation Yrotation
    JOINT chest
    {
      OFFSET 0 11.7043 -0.48768
      CHANNELS 3 Zrotation Xrotation Yrotation
      JOINT neck
      {
        OFFSET 0 22.1894 -2.19456
        CHANNELS 3 Zrotation Xrotation Yrotation
        JOINT head
        {
          OFFSET -0.24384 7.07133 1.2192
          CHANNELS 3 Zrotation Xrotation Yrotation
          JOINT leftEye
          {
            OFFSET 4.14528 8.04674 8.04672
            CHANNELS 3 Zrotation Xrotation Yrotation
            End Site
            {
              OFFSET 1 0 0
            }
          }
          JOINT rightEye
          {
            OFFSET -3.6576 8.04674 8.04672
            CHANNELS 3 Zrotation Xrotation Yrotation
            End Site
            {
              OFFSET 1 0 0
            }
          }
        }
      }
      JOINT rCollar
      {
        OFFSET -2.68224 19.2634 -4.8768
        CHANNELS 3 Zrotation Xrotation Yrotation
        JOINT rShldr
        {
          OFFSET -8.77824 -1.95073 1.46304
          CHANNELS 3 Zrotation Xrotation Yrotation
          JOINT rForeArm
          {
            OFFSET -28.1742 -1.7115 0.48768
            CHANNELS 3 Zrotation Xrotation Yrotation
            JOINT rHand
            {
              OFFSET -22.5879 0.773209 7.07136
              CHANNELS 3 Zrotation Xrotation Yrotation
              JOINT rThumb1
              {
                OFFSET -1.2192 -0.487915 3.41376
                CHANNELS 3 Zrotation Xrotation Yrotation
                JOINT rThumb2
                {
                  OFFSET -3.37035 -0.52449 3.41376
                  CHANNELS 3 Zrotation Xrotation Yrotation
                  End Site
                  {
                    OFFSET -1.78271 -1.18214 1.43049
                  }
                }
              }
              JOINT rIndex1
              {
                OFFSET -7.75947 0.938293 5.60832
                CHANNELS 3 Zrotation Xrotation Yrotation
                JOINT rIndex2
                {
                  OFFSET -2.54057 -0.884171 1.56538
                  CHANNELS 3 Zrotation Xrotation Yrotation
                  End Site
                  {
                    OFFSET -1.62519 -0.234802 1.16502
                  }
                }
              }
              JOINT rMid1
              {
                OFFSET -8.24714 1.18213 3.41376
                CHANNELS 3 Zrotation Xrotation Yrotation
                JOINT rMid2
                {
                  OFFSET -3.10165 -0.590103 1.0647
                  CHANNELS 3 Zrotation Xrotation Yrotation
                  End Site
                  {
                    OFFSET -2.48547 -0.328903 0.83742
                  }
                }
              }
              JOINT rRing1
              {
                OFFSET -8.82822 0.546677 1.51678
                CHANNELS 3 Zrotation Xrotation Yrotation
                JOINT rRing2
                {
                  OFFSET -2.60934 -0.819778 -0.0198488
                  CHANNELS 3 Zrotation Xrotation Yrotation
                  End Site
                  {
                    OFFSET -2.33842 -0.294052 0.168128
                  }
                }
              }
              JOINT rPinky1
              {
                OFFSET -8.27202 -0.0477905 -0.4584
                CHANNELS 3 Zrotation Xrotation Yrotation
                JOINT rPinky2
                {
                  OFFSET -1.82734 -0.647385 -0.700984
                  CHANNELS 3 Zrotation Xrotation Yrotation
                  End Site
                  {
                    OFFSET -1.69225 -0.51767 -0.607171
                  }
                }
              }
            }
          }
        }
      }
      JOINT lCollar
      {
        OFFSET 2.68224 19.2634 -4.8768
        CHANNELS 3 Zrotation Xrotation Yrotation
        JOINT lShldr
        {
          OFFSET 8.77824 -1.95073 1.46304
          CHANNELS 3 Zrotation Xrotation Yrotation
          JOINT lForeArm
          {
            OFFSET 28.1742 -1.7115 0.48768
            CHANNELS 3 Zrotation Xrotation Yrotation
            JOINT lHand
            {
              OFFSET 22.5879 0.773209 7.07136
              CHANNELS 3 Zrotation Xrotation Yrotation
              JOINT lThumb1
              {
                OFFSET 1.2192 -0.487915 3.41376
                CHANNELS 3 Zrotation Xrotation Yrotation
                JOINT lThumb2
                {
                  OFFSET 3.37035 -0.52449 3.41376
                  CHANNELS 3 Zrotation Xrotation Yrotation
                  End Site
                  {
                    OFFSET 1.78271 -1.18214 1.43049
                  }
                }
              }
              JOINT lIndex1
              {
                OFFSET 7.75947 0.938293 5.60832
                CHANNELS 3 Zrotation Xrotation Yrotation
                JOINT lIndex2
                {
                  OFFSET 2.54057 -0.884171 1.56538
                  CHANNELS 3 Zrotation Xrotation Yrotation
                  End Site
                  {
                    OFFSET 1.62519 -0.234802 1.16502
                  }
                }
              }
              JOINT lMid1
              {
                OFFSET 8.24714 1.18213 3.41376
                CHANNELS 3 Zrotation Xrotation Yrotation
                JOINT lMid2
                {
                  OFFSET 3.10165 -0.590103 1.0647
                  CHANNELS 3 Zrotation Xrotation Yrotation
                  End Site
                  {
                    OFFSET 2.48547 -0.328903 0.83742
                  }
                }
              }
              JOINT lRing1
              {
                OFFSET 8.82822 0.546677 1.51678
                CHANNELS 3 Zrotation Xrotation Yrotation
                JOINT lRing2
                {
                  OFFSET 2.60934 -0.819778 -0.0198488
                  CHANNELS 3 Zrotation Xrotation Yrotation
                  End Site
                  {
                    OFFSET 2.33842 -0.294052 0.168128
                  }
                }
              }
              JOINT lPinky1
              {
                OFFSET 8.27202 -0.0477905 -0.4584
                CHANNELS 3 Zrotation Xrotation Yrotation
                JOINT lPinky2
                {
                  OFFSET 1.82734 -0.647385 -0.700984
                  CHANNELS 3 Zrotation Xrotation Yrotation
                  End Site
                  {
                    OFFSET 1.69225 -0.51767 -0.607171
                  }
                }
              }
            }
          }
        }
      }
    }
  }
  JOINT rButtock
  {
    OFFSET -8.77824 4.35084 1.2192
    CHANNELS 3 Zrotation Xrotation Yrotation
    JOINT rThigh
    {
      OFFSET 0 -1.70687 -2.19456
      CHANNELS 3 Zrotation Xrotation Yrotation
      JOINT rShin
      {
        OFFSET 0 -36.8199 0.73152
        CHANNELS 3 Zrotation Xrotation Yrotation
        JOINT rFoot
        {
          OFFSET 0.73152 -45.1104 -5.12064
          CHANNELS 3 Zrotation Xrotation Yrotation
          End Site
          {
            OFFSET -1.1221 -3.69964 12.103
          }
        }
      }
    }
  }
  JOINT lButtock
  {
    OFFSET 8.77824 4.35084 1.2192
    CHANNELS 3 Zrotation Xrotation Yrotation
    JOINT lThigh
    {
      OFFSET 0 -1.70687 -2.19456
      CHANNELS 3 Zrotation Xrotation Yrotation
      JOINT lShin
      {
        OFFSET 0 -36.8199 0.73152
        CHANNELS 3 Zrotation Xrotation Yrotation
        JOINT lFoot
        {
          OFFSET -0.73152 -45.1104 -5.12064
          CHANNELS 3 Zrotation Xrotation Yrotation
          End Site
          {
            OFFSET 1.1221 -3.69964 12.103
          }
        }
      }
    }
  }
}
MOTION
Frames:	4
Frame Time:	0.03333
-3.6964000365696847 61.57279968261719 7.569000051356852 2.812199927866459 18.15530017018318 7.236200273036957 -7.072480246424675 12.09340050816536 1.5467900410294533 4.562420099973679 -9.466090276837349 0.7343350164592266 -7.965399697422981 17.563700079917908 -8.708130195736885 13.301900625228882 -28.332399129867554 -14.066599756479263 0.0 0.0 0.0 0.0 0.0 0.0 0.0 0.0 0.0 39.026401340961456 29.603398740291595 18.511599451303482 -28.212700188159943 -32.08289980888367 70.58739960193634 -0.04344279906945303 -5.939370319247246 -0.8377549611032009 -1.3135093013261212e-09 -1.4651959645561874e-08 5.064748620497994e-09 -2.291926648467779e-09 -2.5413271487195743e-08 8.748202162678353e-09 -1.3135093013261212e-09 -1.4651959645561874e-08 5.064748620497994e-09 7.7309102565050125 5.474880114197731 0.41731400415301323 -1.3135093013261212e-09 -1.4651959645561874e-08 5.064748620497994e-09 2.905540131032467 0.9651830233633518 0.102901995414868 -1.3135093013261212e-09 -1.4651959645561874e-08 5.064748620497994e-09 10.27859978377819 0.7318009994924068 0.025912300043273717 -1.3135093013261212e-09 -1.4651959645561874e-08 5.064748620497994e-09 2.221670038998127 -0.733487019315362 -0.2089200052432716 0.0 0.0 0.0 -63.05319786071777 54.93880212306976 -13.341000527143478 27.7210995554924 -41.686600148677826 -87.00130105018616 1.287580020725727 -30.419699549674988 4.7334099188447 -9.809753009903943e-10 2.7787052658823086e-08 -1.8468426787876524e-09 -1.6486012555105845e-09 4.6877062231942546e-08 -3.212790034012869e-09 -9.809753009903943e-10 2.7787052658823086e-08 -1.8468426787876524e-09 -7.7309102565050125 5.474880114197731 -0.41731400415301323 -9.809753009903943e-10 2.7787052658823086e-08 -1.8468426787876524e-09 -2.905540131032467 0.9651830233633518 -0.102901995414868 -9.809753009903943e-10 2.7787052658823086e-08 -1.8468426787876524e-09 -10.27859978377819 0.7318009994924068 -0.025912300043273717 -9.809753009903943e-10 2.7787052658823086e-08 -1.8468426787876524e-09 -2.221670038998127 -0.733487019315362 0.2089200052432716 0.0 0.0 0.0 -36.589700281620026 -58.547800183296204 -31.557801067829132 -1.0132900346070528 58.84549856185913 1.4024000242352486 1.6851400583982468 -0.3653089888393879 14.60269957780838 0.0 0.0 0.0 10.628599897027016 -2.952830158174038 4.489260166883469 0.1516939967405051 46.587899923324585 -2.6317199505865574 10.346300080418587 -19.78010058403015 29.593099057674408
-3.616800037678331 61.369998931884766 7.834000037051737 3.137799985706806 17.595099359750748 7.115199789404869 -7.479410246014595 11.903899759054184 1.5104499645531178 4.637500159442425 -9.473890140652657 0.7161180395632982 -7.972850203514099 17.507199347019196 -8.555330112576485 13.269999772310257 -28.266001045703888 -13.773399442434311 0.0 0.0 0.0 0.0 0.0 0.0 0.0 0.0 0.0 38.94749879837036 29.609801173210144 18.60240027308464 -28.19899946451187 -31.9718000292778 70.40889859199524 -0.04454130248632282 -6.011610254645348 -0.8480220381170511 -1.2380496627883986e-09 -1.3759233752352884e-08 4.7629100663471036e-09 -2.1601920252578566e-09 -2.3860593501012772e-08 8.231495485233609e-09 -1.2380496627883986e-09 -1.3759233752352884e-08 4.7629100663471036e-09 7.7309102565050125 5.474880114197731 0.41731400415301323 -1.2380496627883986e-09 -1.3759233752352884e-08 4.7629100663471036e-09 2.905540131032467 0.9651830233633518 0.102901995414868 -1.2380496627883986e-09 -1.3759233752352884e-08 4.7629100663471036e-09 10.27859978377819 0.7318009994924068 0.025912300043273717 -1.2380496627883986e-09 -1.3759233752352884e-08 4.7629100663471036e-09 2.221670038998127 -0.733487019315362 -0.2089200052432716 0.0 0.0 0.0 -62.567299604415894 54.975698590278625 -13.802899718284607 27.723701298236847 -41.67670011520386 -86.98270261287689 1.2922299653291702 -30.467799603939056 4.742549881339073 -9.08073616301408e-10 2.1701680452679284e-08 -1.9235812942497432e-09 -1.5194245861493982e-09 3.6299923067417694e-08 -3.3458036341471598e-09 -9.08073616301408e-10 2.1701680452679284e-08 -1.9235812942497432e-09 -7.7309102565050125 5.474880114197731 -0.41731400415301323 -9.08073616301408e-10 2.1701680452679284e-08 -1.9235812942497432e-09 -2.905540131032467 0.9651830233633518 -0.102901995414868 -9.08073616301408e-10 2.1701680452679284e-08 -1.9235812942497432e-09 -10.27859978377819 0.7318009994924068 -0.025912300043273717 -9.08073616301408e-10 2.1701680452679284e-08 -1.9235812942497432e-09 -2.221670038998127 -0.733487019315362 0.2089200052432716 0.0 0.0 0.0 -37.41590112447739 -58.84349763393402 -32.62059956789017 -1.0641299653798342 59.69740033149719 1.4608700014650822 1.6667300462722778 -0.35538800060749054 15.058400183916092 0.0 0.0 0.0 10.224099978804588 -1.573830060660839 5.040309950709343 0.11546399560756981 45.14730155467987 -2.614600080996752 11.01929984986782 -20.402900129556656 30.447801053524017
-3.5546000390313566 61.120201110839844 8.05600003991276 3.391200006008148 17.36499935388565 7.037700042128563 -8.028860092163086 11.780799776315689 1.2807800341397524 4.784050025045872 -9.450109675526619 0.6422459799796343 -7.810170203447342 17.28819966316223 -8.461309969425201 12.93029934167862 -28.101900815963745 -13.660499900579453 0.0 0.0 0.0 0.0 0.0 0.0 0.0 0.0 0.0 39.09739941358566 29.49229896068573 18.496100306510925 -28.190899193286896 -31.907598674297333 70.30519902706146 -0.04382780083687976 -5.963290259242058 -0.8411560021340847 -2.1103119252074976e-10 5.243805389909539e-09 -3.5709035728359595e-09 -3.517186542012496e-10 9.134453193837544e-09 -6.174900590849575e-09 -2.1103119252074976e-10 5.243805389909539e-09 -3.5709035728359595e-09 7.7309102565050125 5.474880114197731 0.41731400415301323 -2.1103119252074976e-10 5.243805389909539e-09 -3.5709035728359595e-09 2.905540131032467 0.9651830233633518 0.102901995414868 -2.1103119252074976e-10 5.243805389909539e-09 -3.5709035728359595e-09 10.27859978377819 0.7318009994924068 0.025912300043273717 -2.1103119252074976e-10 5.243805389909539e-09 -3.5709035728359595e-09 2.221670038998127 -0.733487019315362 -0.2089200052432716 0.0 0.0 0.0 -61.66969835758209 55.00600218772888 -14.721300154924393 27.7496999502182 -41.5705007314682 -86.7855978012085 1.2874599918723106 -30.418100953102112 4.7331299632787704 -4.4508396968012676e-10 7.013909453235101e-09 -1.176658770418726e-09 -7.456435469066491e-10 1.159776275017066e-08 -2.041247171291616e-09 -4.4508396968012676e-10 7.013909453235101e-09 -1.176658770418726e-09 -7.7309102565050125 5.474880114197731 -0.41731400415301323 -4.4508396968012676e-10 7.013909453235101e-09 -1.176658770418726e-09 -2.905540131032467 0.9651830233633518 -0.102901995414868 -4.4508396968012676e-10 7.013909453235101e-09 -1.176658770418726e-09 -10.27859978377819 0.7318009994924068 -0.025912300043273717 -4.4508396968012676e-10 7.013909453235101e-09 -1.176658770418726e-09 -2.221670038998127 -0.733487019315362 0.2089200052432716 0.0 0.0 0.0 -38.63560080528259 -59.04619753360748 -33.8770991563797 -1.1286500003188848 60.71169912815094 1.5349899977445602 1.652049981057644 -0.4694460052996874 15.141799449920654 0.0 0.0 0.0 9.81760986149311 -0.6471499800682068 5.473440103232861 0.08931489894166589 44.154801070690155 -2.6141799800097942 11.636099964380264 -20.852899700403214 31.348299086093903
-3.4956000386737287 60.858699798583984 8.250000045634806 3.7275000661611557 17.41990014910698 7.099799886345863 -8.533390313386917 11.538899391889572 0.9982310235500336 4.954670034348965 -9.39997985959053 0.5603630002588034 -7.619660273194313 17.193800657987595 -8.440520167350769 12.496799379587173 -27.994700968265533 -13.72099980711937 0.0 0.0 0.0 0.0 0.0 0.0 0.0 0.0 0.0 39.3969002366066 29.362901151180267 18.202099353075027 -28.181398808956146 -31.83359920978546 70.18570125102997 -0.04181339900242165 -5.828080102801323 -0.8219450153410435 5.243805389909539e-10 1.3559713352151448e-08 -6.384652806445956e-09 9.323741778644035e-10 2.355363903916441e-08 -1.103501290344866e-08 5.243805389909539e-10 1.3559713352151448e-08 -6.384652806445956e-09 7.7309102565050125 5.474880114197731 0.41731400415301323 5.243805389909539e-10 1.3559713352151448e-08 -6.384652806445956e-09 2.905540131032467 0.9651830233633518 0.102901995414868 5.243805389909539e-10 1.3559713352151448e-08 -6.384652806445956e-09 10.27859978377819 0.7318009994924068 0.025912300043273717 5.243805389909539e-10 1.3559713352151448e-08 -6.384652806445956e-09 2.221670038998127 -0.733487019315362 -0.2089200052432716 0.0 0.0 0.0 -60.83409905433655 55.048601031303406 -15.575999468564987 27.78530091047287 -41.42389923334122 -86.51209831237793 1.2732400093227625 -30.270099341869354 4.705059975385666 1.4068746168049984e-11 -1.1613110473263077e-09 -1.7905676941154525e-10 2.1742607714259066e-11 -1.9619506019807886e-09 -3.069544618483633e-10 1.4068746168049984e-11 -1.1613110473263077e-09 -1.7905676941154525e-10 -7.7309102565050125 5.474880114197731 -0.41731400415301323 1.4068746168049984e-11 -1.1613110473263077e-09 -1.7905676941154525e-10 -2.905540131032467 0.9651830233633518 -0.102901995414868 1.4068746168049984e-11 -1.1613110473263077e-09 -1.7905676941154525e-10 -10.27859978377819 0.7318009994924068 -0.025912300043273717 1.4068746168049984e-11 -1.1613110473263077e-09 -1.7905676941154525e-10 -2.221670038998127 -0.733487019315362 0.2089200052432716 0.0 0.0 0.0 -40.01300096511841 -59.283599853515625 -35.43610095977783 -1.2004099879413843 61.750298738479614 1.6140700690448284 1.5692800283432007 -0.5136050144210458 14.761999994516373 0.0 0.0 0.0 9.521960020065308 -0.1899900007992983 5.792959928512573 0.07247050059959292 43.615001142024994 -2.627020049840212 12.260900437831879 -21.260599493980408 32.247901260852814
